<?xml version="1.0" encoding="UTF-8"?>
<svg xmlns="http://www.w3.org/2000/svg" width="138.434mm" height="32mm" version="1.1" viewBox="0 0 392.411 90.709">
  <!-- Generator: Adobe Illustrator 29.5.1, SVG Export Plug-In . SVG Version: 2.1.0 Build 141)  -->
  <g id="Schutzraum">
    <rect y="0" width="392.411" height="90.709" fill="none"/>
    <rect y="0" width="392.411" height="90.709" fill="none"/>
    <rect y="0" width="392.411" height="90.709" fill="none"/>
    <rect y="0" width="392.411" height="90.709" fill="none"/>
    <rect y="0" width="392.411" height="90.709" fill="none"/>
  </g>
  <g id="Logo">
    <g>
      <path d="M317.594,67.852h4.345v-9.113h2.323c1.75,0,2.505,1.026,2.566,2.716l.12,4.134c.03.844.121,1.659.543,2.263h4.707v-.181c-.814-.423-.935-1.599-.965-3.862-.06-4.557-.513-6.187-3.47-6.579v-.06c2.444-.513,3.591-2.444,3.591-5.311,0-3.682-2.173-5.553-5.734-5.553h-8.026v21.546ZM321.939,49.505h2.052c1.961,0,3.018.996,3.018,2.988,0,2.323-1.178,3.228-3.26,3.228h-1.81v-6.216Z" fill="#8ebae5"/>
      <path d="M253.531,46.307v15.027c0,5.764,3.349,6.941,6.88,6.941s6.88-1.448,6.88-6.941v-15.027h-4.345v15.027c0,2.143-.513,3.742-2.535,3.742s-2.535-1.599-2.535-3.742v-15.027h-4.345Z" fill="#8ebae5"/>
    </g>
    <polygon points="268.355 46.307 268.355 67.852 272.338 67.852 272.338 52.765 272.398 52.765 277.709 67.852 282.658 67.852 282.658 46.307 278.675 46.307 278.675 61.063 278.614 61.063 273.364 46.307 268.355 46.307" fill="#8ebae5"/>
    <rect x="283.775" y="46.307" width="4.345" height="21.545" fill="#8ebae5"/>
    <polygon points="288.418 46.307 293.366 67.852 298.949 67.852 303.897 46.307 299.401 46.307 296.203 62.24 296.113 62.24 293.065 46.307 288.418 46.307" fill="#8ebae5"/>
    <polygon points="304.285 46.307 304.285 67.852 316.627 67.852 316.627 64.292 308.63 64.292 308.63 58.498 315.873 58.498 315.873 54.937 308.63 54.937 308.63 49.868 316.325 49.868 316.325 46.307 304.285 46.307" fill="#8ebae5"/>
    <path d="M331.715,61.123v.875c0,3.984,1.931,6.277,6.85,6.277,4.707,0,7.483-2.052,7.483-6.609,0-2.625-.845-4.284-4.104-5.703l-3.349-1.448c-1.841-.785-2.233-1.599-2.233-2.927,0-1.267.513-2.505,2.474-2.505,1.659,0,2.354,1.177,2.354,3.199h4.164v-.604c0-4.134-2.807-5.793-6.669-5.793-4.104,0-6.668,2.142-6.668,6.336,0,3.591,1.78,5.191,5.642,6.518,2.867.996,3.863,1.72,3.863,3.682,0,1.81-1.268,2.655-2.595,2.655-2.294,0-2.867-1.297-2.867-3.319v-.634h-4.345Z" fill="#8ebae5"/>
    <rect x="346.616" y="46.307" width="4.345" height="21.545" fill="#8ebae5"/>
    <polygon points="373.53 46.307 370.512 54.635 370.452 54.635 367.616 46.307 351.53 46.307 351.53 49.868 356.237 49.868 356.237 67.852 360.583 67.852 360.583 49.868 364.248 49.868 368.309 59.373 368.309 67.852 372.655 67.852 372.655 59.373 378.238 46.307 373.53 46.307" fill="#8ebae5"/>
    <g>
      <path d="M215.36,44.347h-7.2v-21.641h11.807c3.202,0,5.963,2.072,6.864,4.82.834,2.546.121,5.312-1.761,7.281.25.678.494,1.209.726,1.818.523,1.205,1.001,2.41,1.524,3.6l1.713,4.122h-7.301s-.058-.174-.116-.247c-.29-.638-.552-1.321-.842-1.959l-1.756-4.166c-.697-1.684-1.394-3.275-2.09-4.958.869-.024,1.519.139,2.358-.247.59-.29,1.484-1.011,1.507-2.394-.023-.685-.213-1.204-.666-1.744-.455-.502-1.113-.874-1.97-.886,0,0-2.798,0-2.797,0v16.601Z" fill="#00549f"/>
      <path d="M290.565,22.706v21.641h-7.2v-8.824h-5.041v8.824c-1.306,0-2.714-.014-4.02,0h-3.18v-16.633h-5.036v16.633h-7.2v-16.633h-5.079v16.633h-7.417c-1.292-3.12-2.656-6.27-3.919-9.376-.145-.653-.29-1.307-.479-1.945v11.321h-7.432c-1.473-3.425-2.888-6.782-4.357-10.258-.509-1.204-.926-2.184-1.452-3.436l-.072-.164-1.144-2.685-1.638-3.835c-.144-.435-.376-.828-.522-1.263h7.415c1.524,3.701,3.062,7.359,4.659,11.002l.044.087c-.058-.421-.19-.958-.262-1.364v-6.459c.014-1.031,0-2.207,0-3.266h7.431c.094.236.146.363.218.552.871,2.046,1.699,4.078,2.57,6.11l1.945,4.427c-.044-.465-.146-.914-.204-1.364v-9.725h29.131v7.809h5.041v-7.809h7.2Z" fill="#00549f"/>
    </g>
    <path d="M311.45,36.193l2.092-9.73h.06l2.092,9.73h-4.244ZM297.023,36.193l2.091-9.73h.06l2.092,9.73h-4.243ZM316.27,22.704h-5.396l-4.516,17.059-4.516-17.059h-5.396l-5.729,21.643h4.547l1-4.577h5.761l.999,4.577h6.668l1-4.577h5.76l1,4.577h4.547l-5.729-21.643Z" fill="#8ebae5"/>
    <path d="M334.999,30.089c0-3.138-.452-7.695-6.669-7.695-6.517,0-7.333,4.647-7.333,11.195s.816,11.195,7.333,11.195c5.703,0,6.85-4.013,6.85-8.66h-4.345c0,4.647-1.147,5.462-2.716,5.462-1.871,0-2.776-1.177-2.776-7.695,0-6.095.513-8.298,2.716-8.298,1.961,0,2.595,1.358,2.595,4.496h4.345Z" fill="#8ebae5"/>
    <polygon points="336.038 44.347 340.402 44.347 340.402 34.739 345.494 34.739 345.494 44.347 349.859 44.347 349.859 22.706 345.494 22.706 345.494 30.981 340.402 30.981 340.402 22.706 336.038 22.706 336.038 44.347" fill="#8ebae5"/>
    <polygon points="350.805 22.702 350.805 44.347 363.205 44.347 363.205 40.77 355.171 40.77 355.171 34.949 362.447 34.949 362.447 31.372 355.171 31.372 355.171 26.279 362.901 26.279 362.901 22.702 350.805 22.702" fill="#8ebae5"/>
    <polygon points="363.853 22.706 363.853 44.347 367.854 44.347 367.854 29.192 367.914 29.192 373.249 44.347 378.22 44.347 378.22 22.706 374.219 22.706 374.219 37.527 374.158 37.527 368.884 22.706 363.853 22.706" fill="#8ebae5"/>
    <rect x="193.486" y="22.677" width="1" height="45.355" fill="#00549f"/>
    <g>
      <path d="M50.998,50.147h2.677c.702,0,1.296.133,1.78.399.484.266.873.703,1.168,1.31.294.608.508,1.405.641,2.392.132.988.199,2.193.199,3.617,0,1.481-.071,2.72-.214,3.717-.142.996-.365,1.789-.669,2.378-.304.588-.698,1.006-1.182,1.253-.484.247-1.058.37-1.723.37h-2.677v-15.436ZM47.752,68.032h5.781c1.595,0,2.866-.247,3.816-.74.949-.494,1.671-1.192,2.164-2.094.494-.901.817-1.974.969-3.218.151-1.243.228-2.615.228-4.115s-.077-2.871-.228-4.115c-.152-1.243-.475-2.316-.969-3.218-.493-.902-1.215-1.599-2.164-2.093-.95-.494-2.221-.741-3.816-.741h-5.781v20.334ZM36.845,56.27v-6.123h2.278c.456,0,.883.039,1.282.114.398.076.744.219,1.039.427.294.21.527.504.698.883.171.38.256.874.256,1.481,0,.968-.252,1.747-.755,2.335-.503.589-1.248.883-2.235.883h-2.563ZM36.845,65.583v-7.034h3.018c.969,0,1.742.299,2.321.897.579.598.869,1.448.869,2.548,0,1.197-.256,2.094-.769,2.692-.512.598-1.253.897-2.221.897h-3.218ZM33.598,68.032h6.436c.949,0,1.813-.128,2.592-.384.778-.257,1.438-.627,1.979-1.111s.959-1.068,1.253-1.752c.294-.683.442-1.452.442-2.306s-.086-1.59-.257-2.207c-.171-.617-.413-1.13-.726-1.538-.313-.408-.698-.727-1.153-.954-.456-.228-.959-.389-1.51-.485v-.056c1.994-.627,2.991-2.165,2.991-4.614,0-.892-.143-1.652-.428-2.278-.284-.627-.674-1.135-1.167-1.524-.494-.389-1.073-.674-1.737-.854-.665-.181-1.377-.271-2.136-.271h-6.579v20.334ZM14.176,68.032h3.076v-16.916h.057l4.101,16.916h2.734l4.101-16.916h.056v16.916h3.076v-20.334h-4.955l-3.531,15.065h-.057l-3.589-15.065h-5.069v20.334Z" fill="#00549f"/>
      <path d="M16.427,45.354c-.743,0-1.47-.367-1.9-1.041-.668-1.048-.36-2.438.689-3.106l11.287-7.192-11.287-7.191c-1.048-.667-1.357-2.058-.689-3.106.668-1.049,2.06-1.356,3.107-.689l14.266,9.088c.648.413,1.041,1.129,1.041,1.898s-.393,1.484-1.041,1.898l-14.266,9.088c-.374.24-.793.353-1.207.353" fill="#8ebae5"/>
      <path d="M30.311,45.354c-.743,0-1.47-.367-1.9-1.041-.668-1.048-.36-2.438.689-3.106l11.287-7.192-11.287-7.191c-1.048-.667-1.357-2.058-.689-3.106.668-1.049,2.06-1.356,3.107-.689l14.266,9.088c.648.413,1.041,1.129,1.041,1.898s-.393,1.484-1.041,1.897l-14.266,9.089c-.374.24-.793.353-1.207.353" fill="#f19eb1"/>
      <path d="M44.194,45.354c-.743,0-1.471-.367-1.9-1.041-.668-1.048-.359-2.438.689-3.106l11.287-7.192-11.287-7.191c-1.048-.667-1.357-2.058-.689-3.106.667-1.049,2.059-1.356,3.107-.689l14.265,9.088c.649.413,1.042,1.129,1.042,1.898s-.393,1.484-1.042,1.897l-14.265,9.089c-.375.24-.793.353-1.207.353" fill="#fabe50"/>
      <path d="M174.578,62.652v.6h-.02c-.134-.28-.304-.473-.51-.58-.207-.107-.407-.16-.6-.16-.374,0-.672.083-.895.25-.224.167-.394.382-.51.645-.117.263-.194.558-.23.885-.037.327-.055.647-.055.96,0,.98.138,1.678.415,2.095.276.417.688.625,1.235.625.22,0,.431-.06.635-.18.203-.12.375-.28.515-.48h.02v.71c0,.28-.057.512-.17.695-.114.183-.31.275-.59.275-.087,0-.169-.013-.245-.04-.077-.027-.149-.063-.215-.11-.14-.1-.21-.237-.21-.41h-1.32c0,.46.158.815.475,1.065.316.25.768.375,1.355.375.806,0,1.381-.172,1.725-.515.343-.343.515-.875.515-1.595v-5.11h-1.32ZM173.163,64.597c.016-.25.051-.45.105-.6.053-.15.126-.258.22-.325.093-.067.216-.1.37-.1.273,0,.461.137.565.41.103.273.155.737.155,1.39,0,.227-.012.435-.035.625-.024.19-.064.352-.12.485-.057.133-.134.238-.23.315-.097.077-.219.115-.365.115-.147,0-.265-.038-.355-.115s-.16-.18-.21-.31c-.05-.13-.084-.278-.1-.445-.017-.167-.025-.343-.025-.53,0-.36.008-.665.025-.915M166.827,68.032h1.38v-3.57c0-.593.243-.89.73-.89.206,0,.356.055.45.165.093.11.14.305.14.585v3.71h1.38v-3.99c0-.54-.119-.93-.355-1.17-.237-.24-.575-.36-1.015-.36-.3,0-.567.062-.8.185-.234.123-.424.318-.57.585h-.02v-.63h-1.32v5.38ZM164.444,68.032h1.38v-5.38h-1.38v5.38ZM164.444,61.992h1.38v-1.18h-1.38v1.18ZM160.984,68.032h1.38v-3.23c0-.18.03-.332.09-.455.06-.123.14-.223.24-.3.1-.077.21-.132.33-.165.12-.033.24-.05.36-.05.073,0,.145.002.215.005.07.003.141.008.215.015v-1.32c-.04-.007-.082-.012-.125-.015-.044-.003-.085-.005-.125-.005-.287,0-.53.078-.73.235-.2.157-.37.365-.51.625h-.02v-.72h-1.32v5.38ZM157.454,64.732v-.21c0-.127.011-.253.035-.38.023-.127.061-.242.115-.345.053-.103.125-.187.215-.25.09-.063.205-.095.345-.095s.255.028.345.085c.09.057.16.14.21.25s.085.243.105.4c.02.157.033.338.04.545h-1.41ZM160.184,65.552v-.31c0-.413-.027-.788-.08-1.125-.054-.337-.154-.623-.3-.86-.147-.237-.349-.42-.605-.55-.257-.13-.585-.195-.985-.195-.467,0-.84.077-1.12.23s-.495.36-.645.62c-.15.26-.25.557-.3.89-.05.333-.075.68-.075,1.04,0,.333.015.672.045,1.015s.111.653.245.93c.133.277.34.502.62.675s.67.26,1.17.26c.66,0,1.143-.168,1.45-.505.306-.337.473-.818.5-1.445h-1.24c-.04.34-.114.593-.22.76-.107.167-.277.25-.51.25-.127,0-.234-.035-.32-.105-.087-.07-.157-.163-.21-.28-.054-.117-.092-.25-.115-.4-.024-.15-.035-.305-.035-.465v-.43h2.73ZM152.717,64.732v-.21c0-.127.011-.253.035-.38.023-.127.061-.242.115-.345.053-.103.125-.187.215-.25.09-.063.205-.095.345-.095s.255.028.345.085c.09.057.16.14.21.25s.085.243.105.4c.02.157.033.338.04.545h-1.41ZM155.447,65.552v-.31c0-.413-.027-.788-.08-1.125-.054-.337-.154-.623-.3-.86-.147-.237-.349-.42-.605-.55-.257-.13-.585-.195-.985-.195-.467,0-.84.077-1.12.23s-.495.36-.645.62c-.15.26-.25.557-.3.89-.05.333-.075.68-.075,1.04,0,.333.015.672.045,1.015s.111.653.245.93c.133.277.34.502.62.675s.67.26,1.17.26c.66,0,1.143-.168,1.45-.505.306-.337.473-.818.5-1.445h-1.24c-.04.34-.114.593-.22.76-.107.167-.277.25-.51.25-.127,0-.234-.035-.32-.105-.087-.07-.157-.163-.21-.28-.054-.117-.092-.25-.115-.4-.024-.15-.035-.305-.035-.465v-.43h2.73ZM146.452,68.032h1.38v-3.57c0-.593.243-.89.73-.89.206,0,.356.055.45.165.093.11.14.305.14.585v3.71h1.38v-3.99c0-.54-.119-.93-.355-1.17-.237-.24-.575-.36-1.015-.36-.3,0-.567.062-.8.185-.234.123-.424.318-.57.585h-.02v-.63h-1.32v5.38ZM144.069,68.032h1.38v-5.38h-1.38v5.38ZM144.069,61.992h1.38v-1.18h-1.38v1.18ZM141.722,62.652v.6h-.02c-.134-.28-.304-.473-.51-.58-.207-.107-.407-.16-.6-.16-.374,0-.672.083-.895.25-.224.167-.394.382-.51.645-.117.263-.194.558-.23.885-.037.327-.055.647-.055.96,0,.98.138,1.678.415,2.095.276.417.688.625,1.235.625.22,0,.431-.06.635-.18.203-.12.375-.28.515-.48h.02v.71c0,.28-.057.512-.17.695-.114.183-.31.275-.59.275-.087,0-.169-.013-.245-.04-.077-.027-.149-.063-.215-.11-.14-.1-.21-.237-.21-.41h-1.32c0,.46.158.815.475,1.065.316.25.768.375,1.355.375.806,0,1.381-.172,1.725-.515.343-.343.515-.875.515-1.595v-5.11h-1.32ZM140.307,64.597c.016-.25.051-.45.105-.6.053-.15.126-.258.22-.325.093-.067.216-.1.37-.1.273,0,.461.137.565.41.103.273.155.737.155,1.39,0,.227-.012.435-.035.625-.024.19-.064.352-.12.485-.057.133-.134.238-.23.315-.097.077-.219.115-.365.115-.147,0-.265-.038-.355-.115s-.16-.18-.21-.31c-.05-.13-.084-.278-.1-.445-.017-.167-.025-.343-.025-.53,0-.36.008-.665.025-.915M133.971,68.032h1.38v-3.57c0-.593.243-.89.73-.89.206,0,.356.055.45.165.093.11.14.305.14.585v3.71h1.38v-3.99c0-.54-.119-.93-.355-1.17-.237-.24-.575-.36-1.015-.36-.3,0-.567.062-.8.185-.234.123-.424.318-.57.585h-.02v-.63h-1.32v5.38ZM129.121,60.892v7.14h4.09v-1.18h-2.65v-1.92h2.4v-1.18h-2.4v-1.68h2.55v-1.18h-3.99ZM124.331,68.032h1.38v-7.14h-1.38v7.14ZM121.973,66.402c0,.153-.026.282-.08.385-.053.103-.121.188-.205.255-.083.067-.175.115-.275.145-.1.03-.196.045-.29.045-.186,0-.32-.073-.4-.22-.08-.147-.12-.323-.12-.53,0-.24.06-.43.18-.57.12-.14.32-.24.6-.3.087-.02.184-.052.29-.095.107-.043.207-.102.3-.175v1.06ZM120.693,64.302v-.15c0-.213.054-.383.16-.51.107-.127.267-.19.48-.19.234,0,.399.058.495.175.097.117.145.278.145.485,0,.18-.04.317-.12.41-.08.093-.223.167-.43.22l-.78.21c-.24.067-.445.143-.615.23-.17.087-.31.195-.42.325-.11.13-.191.287-.245.47-.053.183-.08.402-.08.655,0,.18.024.362.07.545.047.183.12.348.22.495.1.147.234.267.4.36.167.093.37.14.61.14.334,0,.605-.047.815-.14.21-.093.395-.28.555-.56h.02c.02.093.042.188.065.285.024.097.059.188.105.275h1.32c-.066-.16-.111-.31-.135-.45-.023-.14-.035-.337-.035-.59v-2.83c0-.24-.025-.462-.075-.665-.05-.203-.145-.378-.285-.525-.14-.147-.338-.26-.595-.34-.256-.08-.588-.12-.995-.12-.26,0-.505.028-.735.085-.23.057-.43.15-.6.28-.17.13-.305.302-.405.515-.1.213-.15.473-.15.78v.13h1.24ZM114.427,68.032h1.38v-3.57c0-.593.244-.89.73-.89.207,0,.357.055.45.165.094.11.14.305.14.585v3.71h1.38v-3.99c0-.54-.118-.93-.355-1.17-.236-.24-.575-.36-1.015-.36-.3,0-.566.062-.8.185-.233.123-.423.318-.57.585h-.02v-.63h-1.32v5.38ZM110.784,64.582c.014-.233.045-.433.095-.6.05-.167.124-.297.22-.39.097-.093.232-.14.405-.14.28,0,.474.147.58.44.107.293.16.777.16,1.45s-.053,1.157-.16,1.45c-.106.293-.3.44-.58.44-.173,0-.308-.047-.405-.14-.096-.093-.17-.223-.22-.39-.05-.167-.081-.367-.095-.6-.013-.233-.02-.487-.02-.76s.007-.527.02-.76M109.484,66.582c.067.353.18.65.34.89.16.24.377.418.65.535.274.117.617.172,1.03.165.394,0,.725-.062.995-.185.27-.123.489-.303.655-.54.167-.237.287-.532.36-.885.074-.353.11-.76.11-1.22,0-.467-.033-.878-.1-1.235-.066-.357-.18-.655-.34-.895-.16-.24-.376-.418-.65-.535-.273-.117-.616-.172-1.03-.165-.393,0-.725.062-.995.185-.27.123-.488.303-.655.54-.166.237-.286.532-.36.885-.073.353-.11.76-.11,1.22,0,.473.034.887.1,1.24M107.157,68.032h1.38v-5.38h-1.38v5.38ZM107.157,61.992h1.38v-1.18h-1.38v1.18ZM104.32,62.652h-.7v.94h.7v3.08c0,.273.016.5.05.68.033.18.095.325.185.435.09.11.218.188.385.235.166.047.386.07.66.07.16,0,.311-.007.455-.02.143-.013.291-.027.445-.04v-.96c-.047.007-.097.012-.15.015-.054.003-.107.005-.16.005-.2,0-.332-.045-.395-.135-.064-.09-.095-.242-.095-.455v-2.91h.8v-.94h-.8v-1.54h-1.38v1.54ZM101.669,66.402c0,.153-.027.282-.08.385-.054.103-.122.188-.205.255-.084.067-.175.115-.275.145-.1.03-.197.045-.29.045-.187,0-.32-.073-.4-.22-.08-.147-.12-.323-.12-.53,0-.24.06-.43.18-.57.12-.14.32-.24.6-.3.086-.02.183-.052.29-.095.106-.043.206-.102.3-.175v1.06ZM100.389,64.302v-.15c0-.213.053-.383.16-.51.106-.127.266-.19.48-.19.233,0,.398.058.495.175.096.117.145.278.145.485,0,.18-.04.317-.12.41-.08.093-.224.167-.43.22l-.78.21c-.24.067-.445.143-.615.23-.17.087-.31.195-.42.325-.11.13-.192.287-.245.47-.054.183-.08.402-.08.655,0,.18.023.362.07.545.046.183.12.348.22.495.1.147.233.267.4.36.166.093.37.14.61.14.333,0,.605-.047.815-.14.21-.093.395-.28.555-.56h.02c.02.093.041.188.065.285.023.097.058.188.105.275h1.32c-.067-.16-.112-.31-.135-.45-.024-.14-.035-.337-.035-.59v-2.83c0-.24-.025-.462-.075-.665-.05-.203-.145-.378-.285-.525-.14-.147-.339-.26-.595-.34-.257-.08-.589-.12-.995-.12-.26,0-.505.028-.735.085-.23.057-.43.15-.6.28-.17.13-.305.302-.405.515-.1.213-.15.473-.15.78v.13h1.24ZM96.313,62.652h-.7v.94h.7v3.08c0,.273.016.5.05.68.033.18.095.325.185.435.09.11.218.188.385.235.166.047.386.07.66.07.16,0,.311-.007.455-.02.143-.013.291-.027.445-.04v-.96c-.047.007-.097.012-.15.015-.054.003-.107.005-.16.005-.2,0-.332-.045-.395-.135-.064-.09-.095-.242-.095-.455v-2.91h.8v-.94h-.8v-1.54h-1.38v1.54ZM93.679,68.032h1.32v-5.38h-1.38v3.57c0,.593-.244.89-.73.89-.207,0-.357-.055-.45-.165-.094-.11-.14-.305-.14-.585v-3.71h-1.38v3.99c0,.54.118.93.355,1.17.236.24.575.36,1.015.36.3,0,.566-.062.8-.185.233-.123.423-.318.57-.585h.02v.63ZM87.377,64.017c.09-.297.288-.445.595-.445.3,0,.495.148.585.445.09.297.135.738.135,1.325s-.045,1.028-.135,1.325c-.09.297-.285.445-.585.445-.307,0-.505-.148-.595-.445-.09-.297-.135-.738-.135-1.325s.045-1.028.135-1.325M85.862,69.792h1.38v-2.26h.02c.146.213.311.373.495.48.183.107.405.16.665.16.566,0,.983-.222,1.25-.665.266-.443.4-1.165.4-2.165s-.134-1.722-.4-2.165c-.267-.443-.684-.665-1.25-.665-.28,0-.515.055-.705.165-.19.11-.362.292-.515.545h-.02v-.57h-1.32v7.14ZM78.23,68.032h1.38v-3.54c0-.32.065-.553.195-.7.13-.147.305-.22.525-.22.193,0,.331.06.415.18.083.12.125.293.125.52v3.76h1.38v-3.54c0-.32.065-.553.195-.7.13-.147.305-.22.525-.22.193,0,.331.06.415.18.083.12.125.293.125.52v3.76h1.38v-3.91c0-.52-.109-.918-.325-1.195-.217-.277-.555-.415-1.015-.415-.327,0-.609.072-.845.215-.237.143-.409.358-.515.645h-.02c-.074-.28-.219-.493-.435-.64-.217-.147-.485-.22-.805-.22-.3,0-.559.053-.775.16-.217.107-.412.283-.585.53h-.02v-.55h-1.32v5.38ZM74.587,64.582c.013-.233.045-.433.095-.6.05-.167.123-.297.22-.39.096-.093.231-.14.405-.14.28,0,.473.147.58.44.106.293.16.777.16,1.45s-.054,1.157-.16,1.45c-.107.293-.3.44-.58.44-.174,0-.309-.047-.405-.14-.097-.093-.17-.223-.22-.39-.05-.167-.082-.367-.095-.6-.014-.233-.02-.487-.02-.76s.006-.527.02-.76M73.287,66.582c.066.353.18.65.34.89.16.24.376.418.65.535.273.117.616.172,1.03.165.393,0,.725-.062.995-.185.27-.123.488-.303.655-.54.166-.237.286-.532.36-.885.073-.353.11-.76.11-1.22,0-.467-.034-.878-.1-1.235-.067-.357-.18-.655-.34-.895-.16-.24-.377-.418-.65-.535-.274-.117-.617-.172-1.03-.165-.394,0-.725.062-.995.185-.27.123-.489.303-.655.54-.167.237-.287.532-.36.885-.074.353-.11.76-.11,1.22,0,.473.033.887.1,1.24M72.437,63.302c0-.26-.018-.538-.055-.835-.037-.297-.128-.573-.275-.83-.147-.257-.368-.468-.665-.635-.297-.167-.702-.25-1.215-.25-.54,0-.97.092-1.29.275-.32.183-.565.438-.735.765-.17.327-.28.718-.33,1.175-.05.457-.075.955-.075,1.495s.025,1.038.075,1.495c.05.457.16.848.33,1.175.17.327.415.582.735.765.32.183.75.275,1.29.275.473,0,.858-.077,1.155-.23.297-.153.527-.362.69-.625.163-.263.275-.568.335-.915.06-.347.09-.713.09-1.1h-1.44c0,.387-.023.698-.07.935-.047.237-.11.42-.19.55-.08.13-.175.217-.285.26s-.228.065-.355.065c-.153,0-.288-.032-.405-.095-.117-.063-.213-.187-.29-.37-.077-.183-.133-.442-.17-.775s-.055-.77-.055-1.31c0-.507.013-.935.04-1.285s.073-.633.14-.85c.067-.217.158-.373.275-.47.117-.097.265-.145.445-.145.327,0,.552.118.675.355.123.237.185.615.185,1.135h1.44Z" fill="#00549f"/>
      <path d="M151.587,56.693h1.38v-3.57c0-.593.243-.89.73-.89.206,0,.356.055.45.165.093.11.14.305.14.585v3.71h1.38v-3.99c0-.54-.119-.93-.355-1.17-.237-.24-.575-.36-1.015-.36-.3,0-.567.062-.8.185-.234.123-.424.318-.57.585h-.02v-.63h-1.32v5.38ZM149.204,56.693h1.38v-5.38h-1.38v5.38ZM149.204,50.653h1.38v-1.18h-1.38v1.18ZM144.094,51.313h-.7v.94h.7v3.08c0,.273.017.5.05.68.033.18.095.325.185.435s.218.188.385.235c.167.047.387.07.66.07.16,0,.312-.007.455-.02s.292-.027.445-.04v-.96c-.047.007-.097.012-.15.015-.053.003-.107.005-.16.005-.2,0-.332-.045-.395-.135-.063-.09-.095-.242-.095-.455v-2.91h.8v-.94h-.8v-1.54h-1.38v1.54ZM138.71,56.693h1.38v-3.57c0-.593.243-.89.73-.89.207,0,.357.055.45.165s.14.305.14.585v3.71h1.38v-3.99c0-.54-.118-.93-.355-1.17-.237-.24-.575-.36-1.015-.36-.3,0-.567.062-.8.185s-.423.318-.57.585h-.02v-.63h-1.32v5.38ZM135.18,53.393v-.21c0-.127.012-.253.035-.38.023-.127.062-.242.115-.345.053-.103.125-.187.215-.25.09-.063.205-.095.345-.095s.255.028.345.085c.09.057.16.14.21.25s.085.243.105.4c.02.157.033.338.04.545h-1.41ZM137.91,54.213v-.31c0-.413-.027-.788-.08-1.125-.053-.337-.153-.623-.3-.86-.147-.237-.348-.42-.605-.55-.257-.13-.585-.195-.985-.195-.467,0-.84.077-1.12.23s-.495.36-.645.62c-.15.26-.25.557-.3.89-.05.333-.075.68-.075,1.04,0,.333.015.672.045,1.015.03.343.112.653.245.93s.34.502.62.675.67.26,1.17.26c.66,0,1.143-.168,1.45-.505.307-.337.473-.818.5-1.445h-1.24c-.04.34-.113.593-.22.76s-.277.25-.51.25c-.127,0-.233-.035-.32-.105s-.157-.163-.21-.28c-.053-.117-.092-.25-.115-.4-.023-.15-.035-.305-.035-.465v-.43h2.73ZM126.34,56.693h1.38v-3.54c0-.32.065-.553.195-.7.13-.147.305-.22.525-.22.193,0,.332.06.415.18.083.12.125.293.125.52v3.76h1.38v-3.54c0-.32.065-.553.195-.7s.305-.22.525-.22c.193,0,.332.06.415.18.083.12.125.293.125.52v3.76h1.38v-3.91c0-.52-.108-.918-.325-1.195-.217-.277-.555-.415-1.015-.415-.327,0-.608.072-.845.215-.237.143-.408.358-.515.645h-.02c-.073-.28-.218-.493-.435-.64-.217-.147-.485-.22-.805-.22-.3,0-.558.053-.775.16-.217.107-.412.283-.585.53h-.02v-.55h-1.32v5.38ZM122.798,52.678c.09-.297.288-.445.595-.445.3,0,.495.148.585.445.09.297.135.738.135,1.325s-.045,1.028-.135,1.325c-.09.297-.285.445-.585.445-.307,0-.505-.148-.595-.445-.09-.297-.135-.738-.135-1.325s.045-1.028.135-1.325M121.283,58.453h1.38v-2.26h.02c.147.213.312.373.495.48.183.107.405.16.665.16.567,0,.983-.222,1.25-.665s.4-1.165.4-2.165-.133-1.722-.4-2.165c-.267-.443-.683-.665-1.25-.665-.28,0-.515.055-.705.165-.19.11-.362.292-.515.545h-.02v-.57h-1.32v7.14ZM117.64,53.243c.013-.233.045-.433.095-.6.05-.167.123-.297.22-.39s.232-.14.405-.14c.28,0,.473.147.58.44.107.293.16.777.16,1.45s-.053,1.157-.16,1.45-.3.44-.58.44c-.173,0-.308-.047-.405-.14-.097-.093-.17-.223-.22-.39-.05-.167-.082-.367-.095-.6-.013-.233-.02-.487-.02-.76s.007-.527.02-.76M116.34,55.243c.067.353.18.65.34.89.16.24.377.418.65.535.273.117.617.172,1.03.165.393,0,.725-.062.995-.185s.488-.303.655-.54.287-.532.36-.885.11-.76.11-1.22c0-.467-.033-.878-.1-1.235-.067-.357-.18-.655-.34-.895-.16-.24-.377-.418-.65-.535-.273-.117-.617-.172-1.03-.165-.393,0-.725.062-.995.185-.27.123-.488.303-.655.54s-.287.532-.36.885c-.073.353-.11.76-.11,1.22,0,.473.033.887.1,1.24M114.013,56.693h1.38v-7.14h-1.38v7.14ZM110.451,53.393v-.21c0-.127.012-.253.035-.38.024-.127.062-.242.115-.345.054-.103.125-.187.215-.25.09-.063.205-.095.345-.095s.255.028.345.085c.09.057.16.14.21.25s.085.243.105.4c.02.157.034.338.04.545h-1.41ZM113.181,54.213v-.31c0-.413-.026-.788-.08-1.125-.053-.337-.153-.623-.3-.86-.146-.237-.348-.42-.605-.55-.256-.13-.585-.195-.985-.195-.466,0-.84.077-1.12.23s-.495.36-.645.62c-.15.26-.25.557-.3.89s-.075.68-.075,1.04c0,.333.015.672.045,1.015s.112.653.245.93c.134.277.34.502.62.675s.67.26,1.17.26c.66,0,1.144-.168,1.45-.505.307-.337.474-.818.5-1.445h-1.24c-.04.34-.113.593-.22.76-.106.167-.276.25-.51.25-.126,0-.233-.035-.32-.105-.086-.07-.156-.163-.21-.28-.053-.117-.091-.25-.115-.4-.023-.15-.035-.305-.035-.465v-.43h2.73ZM106.653,55.163h-.02l-.77-3.85h-1.44l1.39,5.38h1.6l1.35-5.38h-1.38l-.73,3.85ZM101.376,53.393v-.21c0-.127.012-.253.036-.38.023-.127.061-.242.114-.345.054-.103.125-.187.216-.25.089-.063.204-.095.344-.095.141,0,.255.028.345.085.091.057.16.14.21.25.051.11.086.243.105.4.02.157.034.338.041.545h-1.411ZM104.106,54.213v-.31c0-.413-.026-.788-.08-1.125-.053-.337-.153-.623-.299-.86-.147-.237-.349-.42-.606-.55-.256-.13-.584-.195-.985-.195-.466,0-.84.077-1.12.23-.28.153-.494.36-.645.62-.15.26-.25.557-.3.89-.049.333-.075.68-.075,1.04,0,.333.015.672.045,1.015.03.343.112.653.246.93.133.277.339.502.619.675s.67.26,1.17.26c.66,0,1.144-.168,1.45-.505.307-.337.474-.818.5-1.445h-1.239c-.041.34-.114.593-.22.76-.107.167-.277.25-.511.25-.126,0-.233-.035-.32-.105-.086-.07-.156-.163-.21-.28-.053-.117-.091-.25-.114-.4-.024-.15-.036-.305-.036-.465v-.43h2.73ZM94.53,56.693h2.27c.48,0,.876-.073,1.19-.22.313-.147.563-.37.75-.67.186-.3.318-.68.395-1.14.076-.46.115-1.007.115-1.64,0-.527-.03-1.003-.09-1.43-.06-.427-.175-.792-.345-1.095-.17-.303-.409-.537-.715-.7-.307-.163-.71-.245-1.21-.245h-2.36v7.14ZM95.97,50.613h.61c.273,0,.491.052.655.155.163.103.286.258.37.465.083.207.138.462.165.765.026.303.04.658.04,1.065,0,.487-.015.893-.045,1.22-.03.327-.09.59-.18.79-.09.2-.214.343-.37.43-.157.087-.359.13-.605.13h-.64v-5.02ZM88.405,52.678c.09-.297.285-.445.585-.445.306,0,.505.148.595.445.09.297.135.738.135,1.325s-.045,1.028-.135,1.325c-.09.297-.289.445-.595.445-.3,0-.495-.148-.585-.445-.09-.297-.135-.738-.135-1.325s.045-1.028.135-1.325M89.78,56.693h1.32v-7.14h-1.38v2.26h-.02c-.147-.213-.312-.373-.495-.48-.184-.107-.405-.16-.665-.16-.567,0-.984.222-1.25.665-.267.443-.4,1.165-.4,2.165s.133,1.722.4,2.165c.266.443.683.665,1.25.665.28,0,.515-.055.705-.165s.361-.292.515-.545h.02v.57ZM83.497,53.393v-.21c0-.127.011-.253.035-.38.023-.127.061-.242.115-.345.053-.103.125-.187.215-.25.09-.063.205-.095.345-.095s.255.028.345.085c.09.057.16.14.21.25.05.11.085.243.105.4.02.157.033.338.04.545h-1.41ZM86.227,54.213v-.31c0-.413-.027-.788-.08-1.125-.054-.337-.154-.623-.3-.86-.147-.237-.349-.42-.605-.55-.257-.13-.585-.195-.985-.195-.467,0-.84.077-1.12.23s-.495.36-.645.62c-.15.26-.25.557-.3.89s-.075.68-.075,1.04c0,.333.015.672.045,1.015s.111.653.245.93c.133.277.34.502.62.675s.67.26,1.17.26c.66,0,1.143-.168,1.45-.505.306-.337.473-.818.5-1.445h-1.24c-.04.34-.114.593-.22.76-.107.167-.277.25-.51.25-.127,0-.234-.035-.32-.105-.087-.07-.157-.163-.21-.28-.054-.117-.092-.25-.115-.4-.024-.15-.035-.305-.035-.465v-.43h2.73ZM77.557,54.933v.19c0,.26.03.495.09.705s.165.39.315.54c.15.15.351.265.605.345.253.08.576.12.97.12.286,0,.553-.035.8-.105.246-.07.458-.175.635-.315.176-.14.315-.317.415-.53s.15-.46.15-.74c0-.407-.09-.728-.27-.965-.18-.237-.487-.428-.92-.575l-.83-.28c-.234-.073-.392-.163-.475-.27-.084-.107-.125-.227-.125-.36,0-.193.065-.338.195-.435.13-.097.281-.145.455-.145.226,0,.385.065.475.195.09.13.135.335.135.615h1.24v-.22c0-.487-.15-.863-.45-1.13-.3-.267-.764-.4-1.39-.4-.354,0-.655.043-.905.13-.25.087-.455.203-.615.35-.16.147-.277.318-.35.515-.074.197-.11.405-.11.625,0,.38.096.692.29.935.193.243.48.432.86.565l.97.35c.133.053.25.125.35.215s.15.222.15.395c0,.213-.064.373-.19.48-.127.107-.297.16-.51.16-.234,0-.412-.072-.535-.215-.124-.143-.185-.332-.185-.565v-.18h-1.24ZM75.444,55.063c0,.153-.027.282-.08.385-.053.103-.122.188-.205.255s-.175.115-.275.145c-.1.03-.197.045-.29.045-.187,0-.32-.073-.4-.22-.08-.147-.12-.323-.12-.53,0-.24.06-.43.18-.57.12-.14.32-.24.6-.3.087-.02.183-.052.29-.095.107-.043.207-.102.3-.175v1.06ZM74.164,52.963v-.15c0-.213.053-.383.16-.51.107-.127.267-.19.48-.19.233,0,.398.058.495.175s.145.278.145.485c0,.18-.04.317-.12.41-.08.093-.223.167-.43.22l-.78.21c-.24.067-.445.143-.615.23-.17.087-.31.195-.42.325s-.192.287-.245.47c-.053.183-.08.402-.08.655,0,.18.023.362.07.545.047.183.12.348.22.495.1.147.233.267.4.36.167.093.37.14.61.14.333,0,.605-.047.815-.14.21-.093.395-.28.555-.56h.02c.02.093.042.188.065.285s.058.188.105.275h1.32c-.067-.16-.112-.31-.135-.45-.023-.14-.035-.337-.035-.59v-2.83c0-.24-.025-.462-.075-.665-.05-.203-.145-.378-.285-.525s-.338-.26-.595-.34c-.257-.08-.588-.12-.995-.12-.26,0-.505.028-.735.085-.23.057-.43.15-.6.28-.17.13-.305.302-.405.515-.1.213-.15.473-.15.78v.13h1.24ZM69.422,52.678c.09-.297.288-.445.595-.445.3,0,.495.148.585.445.09.297.135.738.135,1.325s-.045,1.028-.135,1.325c-.09.297-.285.445-.585.445-.307,0-.505-.148-.595-.445-.09-.297-.135-.738-.135-1.325s.045-1.028.135-1.325M67.907,56.693h1.32v-.57h.02c.153.253.325.435.515.545s.425.165.705.165c.567,0,.983-.222,1.25-.665s.4-1.165.4-2.165-.133-1.722-.4-2.165c-.267-.443-.683-.665-1.25-.665-.26,0-.482.053-.665.16-.183.107-.348.267-.495.48h-.02v-2.26h-1.38v7.14Z" fill="#00549f"/>
      <path d="M176.993,43.054h2.82v-1.18h-2.82v1.18ZM174.592,45.354h1.38v-7.14h-1.38v7.14ZM171.03,42.054v-.21c0-.127.012-.253.035-.38.024-.127.062-.242.115-.345.054-.103.125-.187.215-.25s.205-.095.345-.095.255.028.345.085c.09.057.16.14.21.25.05.11.085.243.105.4s.034.338.04.545h-1.41ZM173.76,42.874v-.31c0-.413-.026-.788-.08-1.125-.053-.337-.153-.623-.3-.86-.146-.237-.348-.42-.605-.55-.256-.13-.585-.195-.985-.195-.466,0-.84.077-1.12.23s-.495.36-.645.62c-.15.26-.25.557-.3.89s-.075.68-.075,1.04c0,.333.015.672.045,1.015.03.343.112.653.245.93.134.277.34.502.62.675s.67.26,1.17.26c.66,0,1.144-.168,1.45-.505.307-.337.474-.818.5-1.445h-1.24c-.04.34-.113.593-.22.76-.106.167-.276.25-.51.25-.126,0-.233-.035-.32-.105-.086-.07-.156-.163-.21-.28-.053-.117-.091-.25-.115-.4-.023-.15-.035-.305-.035-.465v-.43h2.73ZM166.139,41.339c.09-.297.285-.445.585-.445.307,0,.505.148.595.445.09.297.135.738.135,1.325s-.045,1.028-.135,1.325c-.09.297-.288.445-.595.445-.3,0-.495-.148-.585-.445s-.135-.738-.135-1.325.045-1.028.135-1.325M167.514,45.354h1.32v-7.14h-1.38v2.26h-.02c-.146-.213-.311-.373-.495-.48-.183-.107-.405-.16-.665-.16-.566,0-.983.222-1.25.665-.266.443-.4,1.165-.4,2.165s.134,1.722.4,2.165c.267.443.684.665,1.25.665.28,0,.515-.055.705-.165s.362-.292.515-.545h.02v.57ZM161.106,41.904c.014-.233.045-.433.095-.6s.124-.297.22-.39c.097-.093.232-.14.405-.14.28,0,.474.147.58.44.107.293.16.777.16,1.45s-.053,1.157-.16,1.45c-.106.293-.3.44-.58.44-.173,0-.308-.047-.405-.14-.096-.093-.17-.223-.22-.39s-.081-.367-.095-.6c-.013-.233-.02-.487-.02-.76s.007-.527.02-.76M159.806,43.904c.067.353.18.65.34.89.16.24.377.418.65.535.274.117.617.172,1.03.165.394,0,.725-.062.995-.185.27-.123.489-.303.655-.54.167-.237.287-.532.36-.885.074-.353.11-.76.11-1.22,0-.467-.033-.878-.1-1.235-.066-.357-.18-.655-.34-.895-.16-.24-.376-.418-.65-.535-.273-.117-.616-.172-1.03-.165-.393,0-.725.062-.995.185-.27.123-.488.303-.655.54-.166.237-.286.532-.36.885-.073.353-.11.76-.11,1.22,0,.473.034.887.1,1.24M152.484,45.354h1.32v-5.7h.02l1.27,5.7h1.12l1.27-5.7h.02v5.7h1.32v-7.14h-2.13l-1.03,5.04h-.02l-1.02-5.04h-2.14v7.14ZM146.685,45.354h1.38v-3.23c0-.18.03-.332.09-.455.06-.123.14-.223.24-.3.1-.077.21-.132.33-.165s.24-.05.36-.05c.073,0,.145.002.215.005.07.003.141.008.215.015v-1.32c-.04-.007-.082-.012-.125-.015-.044-.003-.085-.005-.125-.005-.287,0-.53.078-.73.235-.2.157-.37.365-.51.625h-.02v-.72h-1.32v5.38ZM143.042,41.904c.013-.233.045-.433.095-.6s.123-.297.22-.39c.096-.093.231-.14.405-.14.28,0,.473.147.58.44.106.293.16.777.16,1.45s-.054,1.157-.16,1.45c-.107.293-.3.44-.58.44-.174,0-.309-.047-.405-.14-.097-.093-.17-.223-.22-.39s-.082-.367-.095-.6c-.014-.233-.02-.487-.02-.76s.006-.527.02-.76M141.742,43.904c.066.353.18.65.34.89.16.24.376.418.65.535.273.117.616.172,1.03.165.393,0,.725-.062.995-.185.27-.123.488-.303.655-.54.166-.237.286-.532.36-.885.073-.353.11-.76.11-1.22,0-.467-.034-.878-.1-1.235-.067-.357-.18-.655-.34-.895-.16-.24-.377-.418-.65-.535-.274-.117-.617-.172-1.03-.165-.394,0-.725.062-.995.185-.27.123-.489.303-.655.54-.167.237-.287.532-.36.885-.074.353-.11.76-.11,1.22,0,.473.033.887.1,1.24M139.068,45.354h1.38v-4.44h.8v-.94h-.8v-.47c0-.153.04-.263.12-.33.08-.067.216-.1.41-.1h.13c.06,0,.106.003.14.01v-.98c-.254-.02-.5-.03-.74-.03-.22,0-.42.022-.6.065-.18.043-.332.115-.455.215-.124.1-.219.233-.285.4-.067.167-.1.37-.1.61v.61h-.7v.94h.7v4.44ZM131.698,43.594v.19c0,.26.03.495.09.705s.165.39.315.54c.15.15.352.265.605.345.253.08.577.12.97.12.287,0,.553-.035.8-.105.247-.07.458-.175.635-.315s.315-.317.415-.53c.1-.213.15-.46.15-.74,0-.407-.09-.728-.27-.965-.18-.237-.487-.428-.92-.575l-.83-.28c-.233-.073-.392-.163-.475-.27-.083-.107-.125-.227-.125-.36,0-.193.065-.338.195-.435s.282-.145.455-.145c.227,0,.385.065.475.195.09.13.135.335.135.615h1.24v-.22c0-.487-.15-.863-.45-1.13-.3-.267-.763-.4-1.39-.4-.353,0-.655.043-.905.13-.25.087-.455.203-.615.35-.16.147-.277.318-.35.515s-.11.405-.11.625c0,.38.097.692.29.935.193.243.48.432.86.565l.97.35c.133.053.25.125.35.215.1.09.15.222.15.395,0,.213-.063.373-.19.48-.127.107-.297.16-.51.16-.233,0-.412-.072-.535-.215-.123-.143-.185-.332-.185-.565v-.18h-1.24ZM128.226,41.339c.09-.297.285-.445.585-.445.307,0,.505.148.595.445.09.297.135.738.135,1.325s-.045,1.028-.135,1.325-.288.445-.595.445c-.3,0-.495-.148-.585-.445-.09-.297-.135-.738-.135-1.325s.045-1.028.135-1.325M129.601,45.354h1.32v-7.14h-1.38v2.26h-.02c-.147-.213-.312-.373-.495-.48-.183-.107-.405-.16-.665-.16-.567,0-.983.222-1.25.665-.267.443-.4,1.165-.4,2.165s.133,1.722.4,2.165c.267.443.683.665,1.25.665.28,0,.515-.055.705-.165s.362-.292.515-.545h.02v.57ZM123.193,41.904c.013-.233.045-.433.095-.6s.123-.297.22-.39c.097-.093.232-.14.405-.14.28,0,.473.147.58.44.107.293.16.777.16,1.45s-.053,1.157-.16,1.45c-.107.293-.3.44-.58.44-.173,0-.308-.047-.405-.14-.097-.093-.17-.223-.22-.39s-.082-.367-.095-.6c-.013-.233-.02-.487-.02-.76s.007-.527.02-.76M121.893,43.904c.067.353.18.65.34.89.16.24.377.418.65.535s.617.172,1.03.165c.393,0,.725-.062.995-.185.27-.123.488-.303.655-.54s.287-.532.36-.885c.073-.353.11-.76.11-1.22,0-.467-.033-.878-.1-1.235-.067-.357-.18-.655-.34-.895-.16-.24-.377-.418-.65-.535-.273-.117-.617-.172-1.03-.165-.393,0-.725.062-.995.185-.27.123-.488.303-.655.54s-.287.532-.36.885c-.073.353-.11.76-.11,1.22,0,.473.033.887.1,1.24M116.898,45.354h1.38v-3.57c0-.593.243-.89.73-.89.207,0,.357.055.45.165.093.11.14.305.14.585v3.71h1.38v-3.99c0-.54-.118-.93-.355-1.17-.237-.24-.575-.36-1.015-.36-.607,0-1.043.23-1.31.69h-.02v-2.31h-1.38v7.14ZM114.112,39.974h-.7v.94h.7v3.08c0,.273.017.5.05.68s.095.325.185.435c.09.11.218.188.385.235s.387.07.66.07c.16,0,.312-.007.455-.02.143-.013.292-.027.445-.04v-.96c-.047.007-.097.012-.15.015-.053.003-.107.005-.16.005-.2,0-.332-.045-.395-.135-.063-.09-.095-.242-.095-.455v-2.91h.8v-.94h-.8v-1.54h-1.38v1.54ZM110.252,42.054v-.21c0-.127.012-.253.035-.38.023-.127.062-.242.115-.345s.125-.187.215-.25c.09-.063.205-.095.345-.095s.255.028.345.085c.09.057.16.14.21.25.05.11.085.243.105.4.02.157.033.338.04.545h-1.41ZM112.982,42.874v-.31c0-.413-.027-.788-.08-1.125-.053-.337-.153-.623-.3-.86-.147-.237-.348-.42-.605-.55-.257-.13-.585-.195-.985-.195-.467,0-.84.077-1.12.23-.28.153-.495.36-.645.62-.15.26-.25.557-.3.89-.05.333-.075.68-.075,1.04,0,.333.015.672.045,1.015.03.343.112.653.245.93s.34.502.62.675c.28.173.67.26,1.17.26.66,0,1.143-.168,1.45-.505s.473-.818.5-1.445h-1.24c-.04.34-.113.593-.22.76s-.277.25-.51.25c-.127,0-.233-.035-.32-.105-.087-.07-.157-.163-.21-.28s-.092-.25-.115-.4c-.023-.15-.035-.305-.035-.465v-.43h2.73ZM101.65,45.354h1.32v-5.7h.02l1.27,5.7h1.12l1.27-5.7h.02v5.7h1.32v-7.14h-2.13l-1.03,5.04h-.02l-1.02-5.04h-2.14v7.14ZM96.52,45.354h1.38v-4.44h.8v-.94h-.8v-.47c0-.153.04-.263.12-.33.08-.067.217-.1.41-.1h.13c.06,0,.107.003.14.01v-.98c-.253-.02-.5-.03-.74-.03-.22,0-.42.022-.6.065-.18.043-.331.115-.455.215-.123.1-.218.233-.285.4-.066.167-.1.37-.1.61v.61h-.7v.94h.7v4.44ZM92.555,41.904c.014-.233.045-.433.095-.6s.124-.297.22-.39c.097-.093.232-.14.405-.14.28,0,.474.147.58.44.107.293.16.777.16,1.45s-.053,1.157-.16,1.45c-.106.293-.3.44-.58.44-.173,0-.308-.047-.405-.14-.096-.093-.17-.223-.22-.39s-.081-.367-.095-.6c-.013-.233-.02-.487-.02-.76s.007-.527.02-.76M91.255,43.904c.067.353.18.65.34.89.16.24.377.418.65.535.274.117.617.172,1.03.165.394,0,.725-.062.995-.185.27-.123.489-.303.655-.54.167-.237.287-.532.36-.885.074-.353.11-.76.11-1.22,0-.467-.033-.878-.1-1.235-.066-.357-.18-.655-.34-.895-.16-.24-.376-.418-.65-.535-.273-.117-.616-.172-1.03-.165-.393,0-.725.062-.995.185-.27.123-.488.303-.655.54-.166.237-.286.532-.36.885-.073.353-.11.76-.11,1.22,0,.473.034.887.1,1.24M85.606,45.354h1.38v-3.23c0-.18.03-.332.09-.455.06-.123.14-.223.24-.3s.21-.132.33-.165c.12-.033.24-.05.36-.05.073,0,.145.002.215.005.07.003.141.008.215.015v-1.32c-.04-.007-.082-.012-.125-.015-.044-.003-.085-.005-.125-.005-.287,0-.53.078-.73.235-.2.157-.37.365-.51.625h-.02v-.72h-1.32v5.38ZM83.223,45.354h1.38v-5.38h-1.38v5.38ZM83.223,39.314h1.38v-1.18h-1.38v1.18ZM80.865,43.724c0,.153-.027.282-.08.385-.054.103-.122.188-.205.255-.084.067-.175.115-.275.145s-.197.045-.29.045c-.187,0-.32-.073-.4-.22-.08-.147-.12-.323-.12-.53,0-.24.06-.43.18-.57.12-.14.32-.24.6-.3.086-.02.183-.052.29-.095.106-.043.206-.102.3-.175v1.06ZM79.585,41.624v-.15c0-.213.053-.383.16-.51.106-.127.266-.19.48-.19.233,0,.398.058.495.175.096.117.145.278.145.485,0,.18-.04.317-.12.41-.08.093-.224.167-.43.22l-.78.21c-.24.067-.445.143-.615.23-.17.087-.31.195-.42.325s-.192.287-.245.47c-.054.183-.08.402-.08.655,0,.18.023.362.07.545.046.183.12.348.22.495.1.147.233.267.4.36.166.093.37.14.61.14.333,0,.605-.047.815-.14.21-.093.395-.28.555-.56h.02c.02.093.041.188.065.285.023.097.058.188.105.275h1.32c-.067-.16-.112-.31-.135-.45-.024-.14-.035-.337-.035-.59v-2.83c0-.24-.025-.462-.075-.665-.05-.203-.145-.378-.285-.525-.14-.147-.339-.26-.595-.34-.257-.08-.589-.12-.995-.12-.26,0-.505.028-.735.085-.23.057-.43.15-.6.28-.17.13-.305.302-.405.515-.1.213-.15.473-.15.78v.13h1.24ZM73.319,45.354h1.38v-3.57c0-.593.243-.89.73-.89.206,0,.356.055.45.165.093.11.14.305.14.585v3.71h1.38v-3.99c0-.54-.119-.93-.355-1.17-.237-.24-.575-.36-1.015-.36-.607,0-1.044.23-1.31.69h-.02v-2.31h-1.38v7.14ZM72.437,40.624c0-.26-.018-.538-.055-.835-.037-.297-.128-.573-.275-.83-.147-.257-.368-.468-.665-.635-.297-.167-.702-.25-1.215-.25-.54,0-.97.092-1.29.275-.32.183-.565.438-.735.765-.17.327-.28.718-.33,1.175-.05.457-.075.955-.075,1.495s.025,1.038.075,1.495c.05.457.16.848.33,1.175.17.327.415.582.735.765.32.183.75.275,1.29.275.473,0,.858-.077,1.155-.23.297-.153.527-.362.69-.625.163-.263.275-.568.335-.915.06-.347.09-.713.09-1.1h-1.44c0,.387-.023.698-.07.935s-.11.42-.19.55c-.08.13-.175.217-.285.26s-.228.065-.355.065c-.153,0-.288-.032-.405-.095-.117-.063-.213-.187-.29-.37-.077-.183-.133-.442-.17-.775s-.055-.77-.055-1.31c0-.507.013-.935.04-1.285.027-.35.073-.633.14-.85.067-.217.158-.373.275-.47.117-.097.265-.145.445-.145.327,0,.552.118.675.355.123.237.185.615.185,1.135h1.44Z" fill="#00549f"/>
    </g>
  </g>
</svg>